Coordinates
version=1
nRows=60
nColumns=12
inDegrees=yes

Units are S.I. units (second, meters, Newtons, ...)
Angles are in degrees

endheader
time	SC_y	SC_z	SC_x	AC_y	AC_z	AC_x	GH_y	GH_z	GH_yy	EL_x	PS_y
       0.0              -44.64          21.68          47.88          64.48         -12.46         -8.985         -124.6          50.85         -96.91          52.12          36.82
   0.03906              -44.64          21.68          47.88          64.48         -12.46         -8.984         -124.6          50.85         -96.91          52.12          36.83
   0.07812              -44.63          21.68          47.88          64.48         -12.46         -8.983         -124.6          50.85         -96.91          52.13          36.83
    0.1172              -44.63          21.68          47.88          64.48         -12.46         -8.983         -124.5          50.85         -96.91          52.13          36.84
    0.1562              -44.63          21.69          47.88          64.48         -12.46         -8.982         -124.5          50.84         -96.91          52.14          36.85
    0.1953              -44.62          21.69          47.88          64.48         -12.46         -8.981         -124.4          50.84         -96.92          52.14          36.86
    0.2344              -44.62          21.69          47.88          64.48         -12.46          -8.98         -124.4          50.83         -96.92          52.15          36.87
    0.2734              -44.61          21.69          47.88          64.48         -12.45          -8.98         -124.3          50.83         -96.92          52.16          36.88
    0.3125              -44.61          21.69          47.88          64.48         -12.45         -8.979         -124.3          50.82         -96.92          52.16          36.89
    0.3516               -44.6           21.7          47.88          64.48         -12.45         -8.978         -124.2          50.82         -96.92          52.17          36.91
    0.3906               -44.6           21.7          47.88          64.48         -12.45         -8.977         -124.1          50.81         -96.92          52.18          36.92
    0.4297              -44.59           21.7          47.88          64.48         -12.44         -8.976         -124.1          50.81         -96.92          52.19          36.94
    0.4687              -44.58           21.7          47.88          64.47         -12.44         -8.974         -124.0           50.8         -96.92           52.2          36.95
    0.5078              -44.57          21.71          47.88          64.47         -12.44         -8.973         -123.9           50.8         -96.92          52.21          36.97
    0.5469              -44.57          21.71          47.89          64.47         -12.43         -8.972         -123.8          50.79         -96.92          52.22          36.99
    0.5859              -44.56          21.71          47.89          64.47         -12.43          -8.97         -123.7          50.78         -96.92          52.23          37.01
     0.625              -44.55          21.72          47.89          64.47         -12.43         -8.969         -123.6          50.77         -96.93          52.24          37.03
    0.6641              -44.54          21.72          47.89          64.47         -12.42         -8.967         -123.5          50.76         -96.93          52.26          37.06
    0.7031              -44.53          21.73          47.89          64.47         -12.42         -8.965         -123.4          50.75         -96.93          52.28          37.08
    0.7422              -44.51          21.73          47.89          64.47         -12.41         -8.963         -123.3          50.74         -96.93          52.29          37.11
    0.7812               -44.5          21.74          47.89          64.46         -12.41          -8.96         -123.1          50.73         -96.93          52.31          37.14
    0.8203              -44.48          21.74           47.9          64.46          -12.4         -8.958         -123.0          50.71         -96.93          52.33          37.18
    0.8594              -44.47          21.75           47.9          64.46         -12.39         -8.955         -122.8           50.7         -96.94          52.36          37.22
    0.8984              -44.45          21.76           47.9          64.46         -12.39         -8.952         -122.6          50.68         -96.94          52.38          37.26
    0.9375              -44.43          21.77           47.9          64.46         -12.38         -8.948         -122.4          50.66         -96.94          52.41          37.31
    0.9766               -44.4          21.78           47.9          64.45         -12.37         -8.944         -122.1          50.64         -96.94          52.44          37.36
     1.016              -44.38          21.79          47.91          64.45         -12.36          -8.94         -121.8          50.62         -96.95          52.48          37.42
     1.055              -44.35           21.8          47.91          64.45         -12.35         -8.935         -121.5          50.59         -96.95          52.52          37.48
     1.094              -44.32          21.82          47.92          64.44         -12.33         -8.929         -121.2          50.57         -96.95          52.56          37.56
     1.133              -44.28          21.83          47.92          64.44         -12.32         -8.923         -120.8          50.53         -96.96          52.62          37.65
     1.172              -44.23          21.85          47.93          64.43          -12.3         -8.915         -120.3          50.49         -96.96          52.68          37.74
     1.211              -44.19          21.87          47.93          64.42         -12.28         -8.907         -119.8          50.45         -96.97          52.74          37.86
      1.25              -44.13          21.89          47.94          64.42         -12.26         -8.897         -119.2           50.4         -96.98          52.82          37.99
     1.289              -44.06          21.92          47.95          64.41         -12.23         -8.886         -118.5          50.34         -96.99          52.91          38.14
     1.328              -43.99          21.95          47.96           64.4          -12.2         -8.873         -117.7          50.27          -97.0          53.02          38.31
     1.367              -43.89          21.99          47.97          64.39         -12.16         -8.857         -116.7          50.19         -97.01          53.14          38.52
     1.406              -43.79          22.04          47.98          64.37         -12.12         -8.839         -115.6           50.1         -97.02          53.29          38.77
     1.445              -43.66          22.09          47.99          64.36         -12.07         -8.817         -114.2          49.98         -97.04          53.47          39.06
     1.484               -43.5          22.16          48.01          64.34          -12.0          -8.79         -112.6          49.84         -97.06          53.69          39.42
     1.523              -43.31          22.24          48.04          64.31         -11.93         -8.757         -110.5          49.67         -97.08          53.95          39.86
     1.562              -43.07          22.34          48.07          64.28         -11.83         -8.717         -108.0          49.46         -97.11          54.28          40.39
     1.602              -42.77          22.46           48.1          64.25         -11.71         -8.667         -104.9           49.2         -97.15          54.69          41.07
     1.641               -42.4          22.61          48.15           64.2         -11.56         -8.603         -101.0          48.87          -97.2           55.2          41.91
      1.68              -41.93          22.81           48.2          64.14         -11.37         -8.523         -96.01          48.45         -97.26          55.85          42.99
     1.719              -41.32          23.06          48.28          64.06         -11.13          -8.42         -89.62          47.92         -97.33          56.68          44.37
     1.758              -40.55          23.39          48.37          63.97         -10.82         -8.287         -81.42          47.23         -97.43          57.75          46.14
     1.797              -39.55           23.8          48.49          63.84         -10.42         -8.118         -70.95          46.35         -97.56          59.12          48.39
     1.836               -38.3          24.32          48.64          63.69         -9.913         -7.906         -57.78          45.25         -97.72          60.84          51.23
     1.875              -36.78          24.96          48.82          63.49         -9.301         -7.647         -41.73           43.9         -97.91          62.93          54.69
     1.914              -35.02          25.69          49.04          63.27         -8.591         -7.347         -23.13          42.34         -98.14          65.36           58.7
     1.953              -33.11          26.49          49.27          63.03         -7.822         -7.022         -2.985          40.65         -98.38          67.99          63.05
     1.992               -31.2          27.29           49.5          62.79         -7.054         -6.697          17.16          38.96         -98.62          70.61          67.39
     2.031              -29.44          28.02          49.71          62.57         -6.344         -6.396          35.76           37.4         -98.85          73.04           71.4
      2.07              -27.92          28.66          49.89          62.38         -5.731         -6.138          51.81          36.06         -99.04          75.14          74.86
     2.109              -26.67          29.18          50.04          62.22         -5.229         -5.925          64.98          34.95          -99.2          76.85           77.7
     2.148              -25.68          29.59          50.16           62.1         -4.829         -5.756          75.45          34.07         -99.32          78.22          79.96
     2.187               -24.9          29.92          50.26           62.0         -4.516         -5.624          83.65          33.39         -99.42          79.29          81.73
     2.227              -24.29          30.17          50.33          61.92         -4.272         -5.521          90.04          32.85          -99.5          80.12          83.11
     2.266              -23.82          30.37          50.39          61.86         -4.082          -5.44          95.03          32.43         -99.56          80.77          84.18
     2.305              -23.45          30.52          50.43          61.82         -3.932         -5.377          98.96           32.1         -99.61          81.29          85.03
